Coordinates
version=1
nRows=9
nColumns=24
inDegrees=yes

Units are S.I. units (second, meters, Newtons, ...)
Angles are in degrees.

endheader
time	pelvis_tilt	pelvis_list	pelvis_rotation	pelvis_tx	pelvis_ty	pelvis_tz	hip_flexion_r	hip_adduction_r	hip_rotation_r	knee_angle_r	ankle_angle_r	subtalar_angle_r	mtp_angle_r	hip_flexion_l	hip_adduction_l	hip_rotation_l	knee_angle_l	ankle_angle_l	subtalar_angle_l	mtp_angle_l	lumbar_extension	lumbar_bending	lumbar_rotation
      1.02900000	      5.89250625	     -2.50104840	     -3.66509652	     -0.18756686	      0.98966982	      0.33228876	    -21.12497216	      5.76517940	     -0.56321089	     -7.59490160	     13.17172890	     -7.97730387	     -5.90019566	     15.69968469	     -1.54338395	     -4.40685163	      0.85230731	     -0.39374050	     -2.92119683	      1.10837974	     -9.51000571	      4.78771527	      7.48706271
      1.03316667	      5.87707019	     -2.45310983	     -3.73536299	     -0.18170372	      0.98908754	      0.33204949	    -21.19133731	      5.63859966	     -0.54925359	     -8.11294944	     13.16616196	     -7.98166782	     -5.90739522	     15.67813509	     -1.44191472	     -4.60489998	      0.83849505	     -0.61490270	     -3.07379362	      1.13072048	     -9.45789460	      4.70638761	      7.48139260
      1.03733333	      5.84783033	     -2.33802710	     -3.79882957	     -0.17587129	      0.98862683	      0.33180454	    -21.19990877	      5.44503828	     -0.56088060	     -8.70176997	     13.21973703	     -7.94595867	     -5.91125293	     15.65960754	     -1.27767527	     -4.71996580	      0.76222538	     -0.88311243	     -3.25614076	      1.16549147	     -9.40682361	      4.55343874	      7.49994593
      1.04150000	      5.82827094	     -2.27061917	     -3.85858110	     -0.16999555	      0.98815520	      0.33152377	    -21.19236703	      5.29084847	     -0.62076749	     -9.34877190	     13.24619985	     -7.78617124	     -5.90533098	     15.63066358	     -1.15357907	     -4.79332575	      0.62342412	     -1.19307234	     -3.60502579	      1.25242120	     -9.36209453	      4.47174508	      7.54619750
      1.04566667	      5.81592348	     -2.17988991	     -3.90382330	     -0.16406710	      0.98774342	      0.33124605	    -21.19751446	      5.12325345	     -0.63894465	     -9.98173356	     13.20768536	     -7.75558898	     -5.88702555	     15.61947861	     -1.00789653	     -4.89134199	      0.37592605	     -1.52542111	     -3.87505777	      1.34240853	     -9.31448452	      4.34868474	      7.53807696
      1.04983333	      5.79584263	     -2.07740820	     -3.94698444	     -0.15811148	      0.98737859	      0.33096133	    -21.17851098	      4.94665546	     -0.63169957	    -10.64020272	     13.10327410	     -7.80801302	     -5.87002269	     15.63343535	     -0.85391161	     -4.99114595	      0.04268667	     -1.86530187	     -4.10772371	      1.39741869	     -9.25920649	      4.21310639	      7.52840249
      1.05400000	      5.77683231	     -1.98311590	     -3.97888900	     -0.15213649	      0.98705933	      0.33066855	    -21.13438783	      4.78177231	     -0.64260255	    -11.34983947	     12.99177033	     -7.86192632	     -5.84404372	     15.65695086	     -0.70909968	     -5.04700979	     -0.35813574	     -2.25327933	     -4.40449964	      1.45890337	     -9.18872094	      4.06861976	      7.51966017
      1.05816667	      5.70029558	     -1.90763738	     -3.97821785	     -0.14617589	      0.98671075	      0.33030674	    -20.99937364	      4.64947188	     -0.67483047	    -12.10887249	     12.88629865	     -7.84846749	     -5.77180576	     15.76850073	     -0.57745939	     -4.99092985	     -0.84094315	     -2.72123996	     -4.88990740	      1.59664359	     -9.06220933	      3.98678041	      7.51002933
      1.06233333	      5.67094324	     -1.80665605	     -3.97881536	     -0.14017031	      0.98646516	      0.32994429	    -20.89505544	      4.48513076	     -0.71953255	    -12.90131393	     12.70411979	     -7.87524056	     -5.66409237	     15.82539393	     -0.41877014	     -4.94607830	     -1.35430497	     -3.19366940	     -5.31375569	      1.77617822	     -8.98269073	      3.86257567	      7.47689727
